<svg width="167" height="80" viewBox="0 0 167 80" fill="none" xmlns="http://www.w3.org/2000/svg">
<path d="M118.146 19.9268C123.106 16.8819 128.695 14.9821 134.298 14.4453C139.075 13.9776 144.038 14.4958 148.764 15.9265L148.926 14.0284C144.013 12.6096 139.011 12.116 134.122 12.5834C128.237 13.1521 122.379 15.1407 117.173 18.3325C111.967 21.5242 107.55 25.8561 104.381 30.8544C103.486 32.2609 102.7 33.7138 102.013 35.2033C93.8905 37.6136 86.6637 42.0873 80.0369 46.631C78.4227 47.7333 76.7953 48.881 75.2274 49.9873C69.4835 54.019 63.5512 58.1838 57.1793 61.2757C49.9902 64.764 41.9362 66.919 33.8859 67.5074C25.6103 68.1139 17.5821 67.1373 10.0235 64.5966C6.92452 63.5478 3.91334 62.2359 1.06161 60.6953L0.889557 62.7045C3.65744 64.1354 6.48985 65.3573 9.43543 66.3464C14.0392 67.8971 18.8217 68.885 23.7089 69.3035C27.0966 69.5936 30.5451 69.6091 34.0259 69.3568C42.3015 68.7504 50.594 66.5319 57.997 62.9407C64.4957 59.785 70.4968 55.5794 76.2908 51.5054C77.8587 50.3991 79.4853 49.2606 81.0895 48.1668C87.1908 43.9885 93.7804 39.88 101.074 37.4546C98.8714 43.2539 98.2833 49.3594 99.4823 54.9557C100.367 59.1073 102.307 63.0136 105.088 66.2551C107.97 69.6171 111.568 72.0238 115.504 73.2096C119.53 74.4311 124.01 74.2644 128.129 72.7704C132.354 71.2295 135.776 68.398 137.781 64.8016C139.995 60.8313 140.497 55.9496 139.191 51.0623C137.955 46.4422 135.152 42.145 131.492 39.2666C127.945 36.4819 123.634 34.6763 118.702 33.9089C114.24 33.2097 109.401 33.4202 104.711 34.5109C104.606 34.5393 104.502 34.5583 104.397 34.5866C104.867 33.6662 105.392 32.7598 105.953 31.8752C108.973 27.0972 113.186 22.9717 118.146 19.9268ZM105.126 36.3093C109.587 35.2736 114.182 35.0795 118.414 35.7404C123.033 36.4623 127.048 38.1399 130.342 40.7257C133.688 43.3533 136.259 47.295 137.388 51.5329C138.567 55.9522 138.125 60.3448 136.153 63.888C132.517 70.4226 123.674 73.732 116.03 71.4265C112.439 70.3449 109.142 68.1318 106.488 65.0412C103.911 62.0318 102.114 58.4175 101.287 54.5693C100.066 48.8965 100.827 42.6286 103.353 36.7637C103.945 36.5906 104.536 36.4453 105.126 36.3093Z" fill="white"/>
<path d="M166.105 20.2035L148.398 4.03986L148.141 11.1564L160.537 17.9142L148.046 13.7838L148.045 13.7906L148.045 13.7825L142.579 15.5849L147.901 17.7732L147.718 22.8288L166.105 20.2035Z" fill="white"/>
</svg>
