<svg width="1153" height="300" viewBox="0 0 1153 300" fill="none" xmlns="http://www.w3.org/2000/svg">
<path d="M576.497 271.214C700.074 271.214 800.254 120.368 800.254 -65.7109C800.254 -251.79 700.074 -402.636 576.497 -402.636C452.92 -402.636 352.74 -251.79 352.74 -65.7109C352.74 120.368 452.92 271.214 576.497 271.214Z" stroke="#C7D0E4" stroke-miterlimit="10"/>
<path d="M795.358 -36.3388C856.614 -218.351 808.281 -379.056 687.405 -395.284C566.528 -411.511 418.88 -277.115 357.624 -95.103C296.368 86.9095 344.7 247.615 465.577 263.842C586.454 280.069 734.102 145.674 795.358 -36.3388Z" stroke="#C7D0E4" stroke-miterlimit="10"/>
<path d="M780.889 -8.24355C900.724 -178.235 906.35 -341.775 793.457 -373.52C680.563 -405.265 491.9 -293.195 372.065 -123.204C252.231 46.7878 246.604 210.328 359.497 242.073C472.391 273.818 661.054 161.748 780.889 -8.24355Z" stroke="#C7D0E4" stroke-miterlimit="10"/>
<path d="M757.526 17.3606C930.702 -133.18 990.042 -292.407 890.066 -338.283C790.09 -384.159 568.656 -299.312 395.481 -148.771C222.305 1.76991 162.964 160.997 262.94 206.873C362.917 252.749 584.35 167.901 757.526 17.3606Z" stroke="#C7D0E4" stroke-miterlimit="10"/>
<path d="M726.202 39.3155C945.15 -85.1955 1055.61 -233.151 972.921 -291.153C890.232 -349.154 645.706 -295.238 426.757 -170.727C207.808 -46.2159 97.3481 101.74 180.037 159.741C262.727 217.743 507.253 163.826 726.202 39.3155Z" stroke="#C7D0E4" stroke-miterlimit="10"/>
<path d="M688.367 56.6784C943.52 -36.361 1100.27 -166.579 1038.48 -234.171C976.695 -301.763 719.763 -281.134 464.611 -188.095C209.458 -95.0556 52.7059 35.1621 114.495 102.754C176.283 170.347 433.215 149.718 688.367 56.6784Z" stroke="#C7D0E4" stroke-miterlimit="10"/>
<path d="M645.821 67.8462C925.715 10.1618 1121.56 -96.7082 1083.25 -170.855C1044.94 -245.001 786.986 -258.346 507.092 -200.662C227.199 -142.977 31.356 -36.1073 69.665 38.0391C107.974 112.186 365.928 125.531 645.821 67.8462Z" stroke="#C7D0E4" stroke-width="0.9993" stroke-miterlimit="10"/>
<path d="M599.868 74.8389C892.878 55.3883 1119.94 -23.3039 1107.02 -100.925C1094.1 -178.547 846.1 -225.703 553.09 -206.253C260.079 -186.802 33.0187 -108.11 45.9361 -30.4886C58.8534 47.1326 306.857 94.2894 599.868 74.8389Z" stroke="#C7D0E4" stroke-miterlimit="10"/>
<path d="M1107.03 -30.4959C1119.95 -108.117 892.889 -186.809 599.879 -206.26C306.868 -225.711 58.8646 -178.554 45.9473 -100.932C33.0299 -23.3112 260.09 55.381 553.101 74.8316C846.112 94.2821 1094.12 47.1254 1107.03 -30.4959Z" stroke="#C7D0E4" stroke-miterlimit="10"/>
<path d="M1083.86 38.4096C1122.04 -35.8193 925.849 -142.608 645.645 -200.109C365.44 -257.611 107.332 -244.051 69.1446 -169.822C30.9571 -95.5928 227.151 11.1957 507.355 68.6972C787.56 126.199 1045.67 112.638 1083.86 38.4096Z" stroke="#C7D0E4" stroke-miterlimit="10"/>
<path d="M1038.5 102.757C1100.28 35.1644 943.533 -95.0533 688.38 -188.093C433.228 -281.132 176.296 -301.761 114.507 -234.169C52.7188 -166.576 209.471 -36.3587 464.624 56.6807C719.776 149.72 976.707 170.349 1038.5 102.757Z" stroke="#C7D0E4" stroke-miterlimit="10"/>
<path d="M972.941 159.734C1055.63 101.733 945.17 -46.223 726.222 -170.734C507.273 -295.245 262.747 -349.161 180.057 -291.16C97.3681 -233.158 207.828 -85.2026 426.777 39.3084C645.726 163.819 890.252 217.736 972.941 159.734Z" stroke="#C7D0E4" stroke-miterlimit="10"/>
<path d="M890.047 206.866C990.023 160.99 930.683 1.76294 757.507 -148.778C584.331 -299.319 362.897 -384.166 262.921 -338.29C162.945 -292.414 222.285 -133.187 395.461 17.3537C568.637 167.894 790.071 252.742 890.047 206.866Z" stroke="#C7D0E4" stroke-miterlimit="10"/>
<path d="M793.46 242.086C906.354 210.341 900.727 46.8011 780.892 -123.19C661.058 -293.182 472.394 -405.252 359.501 -373.507C246.607 -341.762 252.234 -178.222 372.069 -8.23028C491.903 161.761 680.567 273.832 793.46 242.086Z" stroke="#C7D0E4" stroke-miterlimit="10"/>
<path d="M687.405 263.846C808.282 247.618 856.614 86.9133 795.358 -95.0992C734.103 -277.112 586.455 -411.507 465.578 -395.28C344.701 -379.053 296.369 -218.347 357.624 -36.335C418.88 145.677 566.528 280.073 687.405 263.846Z" stroke="#C7D0E4" stroke-miterlimit="10"/>
</svg>
