<svg width="10" height="13" viewBox="0 0 10 13" fill="none" xmlns="http://www.w3.org/2000/svg">
<path fill-rule="evenodd" clip-rule="evenodd" d="M6.00287 0.364172C6.27048 0.451651 6.45246 0.709014 6.45246 0.999992V4.3333L9.02389 4.3333C9.2636 4.3333 9.48339 4.4716 9.59409 4.69209C9.70479 4.91258 9.688 5.17862 9.55054 5.38227L5.05054 12.0489C4.88964 12.2873 4.59823 12.3899 4.33063 12.3024C4.06302 12.2149 3.88104 11.9576 3.88104 11.6666L3.88104 8.33327H1.30961C1.0699 8.33327 0.850107 8.19496 0.739409 7.97448C0.62871 7.75399 0.645498 7.48795 0.78296 7.2843L5.28296 0.617687C5.44387 0.379309 5.73527 0.276693 6.00287 0.364172Z" fill="#56E39F"/>
</svg>
