<svg width="60" height="44" viewBox="0 0 60 44" fill="none" xmlns="http://www.w3.org/2000/svg">
<path fill-rule="evenodd" clip-rule="evenodd" d="M24.2964 2.30177C25.1914 2.59045 25.8 3.43975 25.8 4.39999V15.4L34.4 15.4C35.2017 15.4 35.9368 15.8564 36.307 16.584C36.6773 17.3116 36.6211 18.1896 36.1614 18.8616L21.1114 40.8616C20.5732 41.6483 19.5986 41.9869 18.7036 41.6982C17.8086 41.4095 17.2 40.5602 17.2 39.6L17.2 28.6H8.60002C7.79834 28.6 7.06324 28.1436 6.69301 27.416C6.32279 26.6884 6.37894 25.8104 6.83867 25.1384L21.8887 3.13837C22.4268 2.35172 23.4014 2.01308 24.2964 2.30177Z" fill="#4C67F4" stroke="black" stroke-linecap="round" stroke-linejoin="round"/>
<path fill-rule="evenodd" clip-rule="evenodd" d="M41.2964 2.30177C42.1914 2.59045 42.8 3.43975 42.8 4.39999V15.4L51.4 15.4C52.2017 15.4 52.9368 15.8564 53.307 16.584C53.6773 17.3116 53.6211 18.1896 53.1614 18.8616L38.1114 40.8616C37.5732 41.6483 36.5986 41.9869 35.7036 41.6982C34.8086 41.4095 34.2 40.5602 34.2 39.6L34.2 28.6H25.6C24.7983 28.6 24.0632 28.1436 23.693 27.416C23.3228 26.6884 23.3789 25.8104 23.8387 25.1384L38.8887 3.13837C39.4268 2.35172 40.4014 2.01308 41.2964 2.30177Z" fill="#56E39F" stroke="black" stroke-linecap="round" stroke-linejoin="round"/>
</svg>
