<svg width="13" height="14" viewBox="0 0 13 14" fill="none" xmlns="http://www.w3.org/2000/svg">
<path d="M6.52262 6.95707C8.28257 6.95707 9.70927 5.53033 9.70927 3.77039C9.70927 2.01044 8.28257 0.58374 6.52262 0.58374C4.76268 0.58374 3.33594 2.01044 3.33594 3.77039C3.33594 5.53033 4.76268 6.95707 6.52262 6.95707Z" stroke="#485470" stroke-linecap="round" stroke-linejoin="round"/>
<path d="M1.46974 11.3903C1.46423 11.1595 1.51452 10.9308 1.61639 10.7236C1.83664 10.422 2.11784 10.17 2.4417 9.98398C2.76556 9.79793 3.12487 9.68197 3.49639 9.64364C4.00996 9.53028 4.53152 9.45672 5.05641 9.42363C6.03004 9.33698 7.00945 9.33698 7.98309 9.42363C8.50758 9.46045 9.02884 9.53398 9.54306 9.64364C10.2564 9.79031 11.1164 10.0836 11.4231 10.7236C11.5239 10.9314 11.5763 11.1594 11.5763 11.3903C11.5763 11.6213 11.5239 11.8492 11.4231 12.057C11.1164 12.7236 10.2564 12.9903 9.54306 13.1303C9.02966 13.2459 8.50814 13.3217 7.98309 13.357C7.1914 13.4214 6.39626 13.4325 5.60308 13.3903C5.41995 13.3969 5.23663 13.3835 5.05641 13.3503C4.53377 13.3168 4.01446 13.2432 3.50306 13.1303C3.1296 13.0988 2.76747 12.9864 2.4417 12.8011C2.11594 12.6158 1.83433 12.3619 1.61639 12.057C1.51645 11.8491 1.46626 11.6209 1.46974 11.3903Z" stroke="#485470" stroke-linecap="round" stroke-linejoin="round"/>
</svg>
