<svg width="17" height="17" viewBox="0 0 17 17" fill="none" xmlns="http://www.w3.org/2000/svg">
<path d="M7.33482 2.32343C7.82234 1.51236 8.99156 1.494 9.50432 2.28935L9.86095 2.84255C10.1573 3.30224 10.7133 3.52239 11.2441 3.39016L11.8827 3.23104C12.801 3.00225 13.6407 3.81603 13.4409 4.74101L13.3019 5.38435C13.1864 5.91896 13.4239 6.46781 13.8927 6.74958L14.4568 7.08867C15.2679 7.57619 15.2863 8.74541 14.4909 9.25817L13.9377 9.61481C13.478 9.91117 13.2579 10.4672 13.3901 10.9979L13.5492 11.6366C13.778 12.5548 12.9642 13.3946 12.0392 13.1947L11.3959 13.0558C10.8613 12.9403 10.3124 13.1778 10.0307 13.6465L9.69158 14.2107C9.20406 15.0217 8.03483 15.0401 7.52208 14.2448L7.16544 13.6916C6.86908 13.2319 6.31305 13.0117 5.78233 13.1439L5.14367 13.3031C4.22542 13.5318 3.38567 12.7181 3.5855 11.7931L3.72449 11.1498C3.83998 10.6151 3.60248 10.0663 3.1337 9.78452L2.56958 9.44543C1.75851 8.95791 1.74014 7.78869 2.5355 7.27593L3.08869 6.9193C3.54839 6.62294 3.76854 6.0669 3.63631 5.53618L3.47718 4.89752C3.2484 3.97928 4.06218 3.13953 4.98715 3.33935L5.6305 3.47834C6.16511 3.59384 6.71396 3.35633 6.99573 2.88755L7.33482 2.32343Z" fill="#36F599"/>
<path d="M11.2383 6.32971L7.50965 10.1773L5.76073 8.4825" stroke="white" stroke-width="0.589213" stroke-linecap="round" stroke-linejoin="round"/>
</svg>
